<?xml version="1.0" encoding="utf-8"?>
<svg xmlns="http://www.w3.org/2000/svg">
  <path d="M 220.647 248.533 C 219.073 248.746 217.579 248.989 216.201 249.266 C 216.038 249.299 215.879 249.364 215.727 249.43 C 215.625 249.474 215.592 249.553 215.608 249.63 C 215.658 249.882 217.8 249.531 221.095 249.113 C 220.937 248.94 220.787 248.746 220.647 248.533 Z" fill="black" style="stroke-width: 1;"/>
  <path d="M 291.271 248.509 C 291.071 248.491 284.888 248.062 275.993 247.679 C 275.973 247.913 275.951 248.135 275.923 248.346 C 282.472 248.619 287.89 248.89 291.307 248.963 C 291.736 248.972 291.679 248.545 291.271 248.509 Z" fill="black" style="stroke-width: 1;"/>
  <path d="M 248.281 205.983 C 248.562 205.995 251.761 202.266 252.73 200.95 C 253.09 200.461 253.064 200.244 252.511 200.744 C 251.248 201.885 247.555 205.952 248.281 205.983 Z" fill="black" style="stroke-width: 1;"/>
  <path d="M 225.985 203.681 C 225.85 203.644 225.702 203.775 225.83 203.901 C 225.838 203.909 231.075 208.468 231.436 208.456 C 232.471 208.423 226.094 203.711 225.985 203.681 Z" fill="black" style="stroke-width: 1;"/>
  <path d="M 237.73 198.581 C 237.732 199.551 238.09 203.112 238.419 204.73 C 238.535 205.298 238.88 205.256 238.88 204.836 C 238.924 204.833 238.402 200.369 238.062 198.804 C 237.908 198.096 237.729 198.155 237.73 198.581 Z" fill="black" style="stroke-width: 1;"/>
  <path d="M 228.545 216.79 C 226.315 216.374 224.873 216.181 224.165 216.144 C 223.445 216.105 223.456 216.384 224.19 216.594 C 224.938 216.808 226.437 216.957 228.571 217.279 C 229.485 217.417 229.645 216.995 228.545 216.79 Z" fill="black" style="stroke-width: 1;"/>
  <path d="M 290.166 243.263 C 290.148 241.399 289.134 239.172 288.707 238.511 C 288.612 238.365 287.704 236.973 287.484 236.763 C 287.165 236.458 287.598 236.125 287.29 235.658 C 287.121 235.402 287.473 235.338 287.444 234.867 C 287.406 234.269 286.943 234.432 287.025 234.228 C 287.172 233.862 287.301 233.893 288.095 232.661 C 288.351 232.265 288.547 231.918 288.234 231.636 C 287.332 230.824 287.285 231.286 287.2 231.023 C 286.828 229.879 285.781 229.499 285.008 229.944 C 284.903 230.005 284.892 229.912 284.819 229.763 C 284.558 229.231 283.997 228.782 283.357 228.778 C 282.716 228.773 282.652 229.134 282.52 228.931 C 281.788 227.803 279.914 228.125 279.699 229.689 C 279.674 229.874 279.632 229.824 279.089 229.945 C 278.417 230.095 277.961 230.103 278.116 230.566 C 278.377 231.349 278.667 232.178 279.061 232.852 C 279.15 233.004 278.953 232.968 278.81 233.189 C 278.517 233.638 278.91 233.802 278.685 233.884 C 278.119 234.09 278.34 234.447 278.185 234.508 C 278.178 234.511 277.559 234.808 276.673 235.345 C 276.597 239.212 276.42 242.64 276.175 245.255 C 276.024 246.865 276.025 248.116 275.792 249.084 C 275.989 249.215 276.188 249.334 276.385 249.44 C 278.198 250.41 280.51 250.798 282.572 250.801 C 285.367 250.805 286.883 250.461 288.849 248.219 C 289.643 247.314 289.996 245.961 290.129 244.756 C 290.246 243.687 290.174 244.216 290.165 243.262 L 290.166 243.263 Z M 286.436 230.535 C 286.928 231.06 286.888 231.607 286.928 231.974 C 286.949 232.162 286.791 232.145 286.293 232.233 C 285.602 232.182 285.269 232.005 284.617 231.606 C 284.518 231.547 284.486 231.516 284.526 231.365 C 284.785 230.387 285.794 229.851 286.436 230.535 Z M 282.461 230.08 C 282.54 229.731 282.752 229.484 283.073 229.332 C 283.911 228.934 284.432 229.992 284.552 230.169 C 284.66 230.327 284.346 230.376 284.124 231.104 C 284.093 231.208 284.008 231.169 283.78 231.003 C 282.662 230.189 282.394 230.374 282.461 230.08 Z M 280.254 229.504 C 280.914 227.974 282.434 229.135 282.238 229.389 C 281.975 229.732 282.046 230.09 281.829 230.021 C 280.562 229.615 280.017 230.053 280.254 229.504 Z M 282.756 246.952 C 282.528 246.954 282.752 247.196 282.428 247.738 C 282.276 247.993 281.936 247.987 281.796 247.728 C 281.706 247.562 281.63 247.388 281.697 247.192 C 281.904 246.586 281.218 247.18 280.013 245.885 C 279.69 245.538 279.973 245.045 280.376 245.209 C 280.654 245.323 280.875 245.697 281.659 246.004 C 282.45 246.313 283.674 246.154 284.233 245.519 C 284.451 245.272 284.495 244.726 284.281 244.425 C 283.498 243.321 281.966 243.921 280.869 242.752 C 279.663 241.468 280.95 239.843 282.613 239.631 C 282.798 239.608 282.679 239.499 282.81 238.906 C 282.938 238.329 283.794 238.421 283.69 239.051 C 283.578 239.736 283.595 239.747 283.728 239.795 C 285.73 240.529 285.234 241.89 284.753 241.474 C 284.582 241.326 284.301 240.626 283.213 240.437 C 282.492 240.312 281.866 240.511 281.4 241.087 C 281.106 241.45 281.103 241.801 281.418 242.163 C 282.314 243.196 284.331 242.578 285.113 244.29 C 285.2 244.48 285.183 244.564 285.183 244.883 C 285.269 246.136 283.944 246.942 282.756 246.952 Z M 279.171 235.248 C 278.939 235.066 278.589 234.676 278.731 234.42 C 278.841 234.221 278.746 234.327 278.944 234.115 C 279.232 234.407 279.159 234.479 279.851 234.893 C 281.298 235.76 282.838 235.997 284.528 236.106 C 286.54 236.237 286.907 235.617 286.975 235.828 C 287.5 237.465 281.485 237.062 279.171 235.248 Z M 286.532 235.431 C 283.89 236.285 277.967 234.402 279.317 233.286 C 279.359 233.251 279.388 233.254 279.426 233.288 C 280.723 234.435 283.877 235.366 286.45 234.75 C 286.89 234.645 286.818 234.474 286.973 234.613 C 287.192 234.81 286.973 235.289 286.532 235.431 Z" fill="#FFDE59" style="stroke-width: 1;"/>
  <path d="M 233.016 235.997 C 231.883 235.272 231.555 235.326 231.543 235.11 C 231.529 234.832 231.378 234.7 231.111 234.61 C 230.865 234.528 231.277 234.464 231.002 233.915 C 230.902 233.715 230.642 233.727 230.723 233.603 C 230.956 233.245 231.299 232.42 231.443 232.012 C 231.864 230.824 232.011 230.909 230.212 230.57 C 230.128 230.554 230.135 230.53 230.092 230.333 C 229.774 228.891 228.338 228.656 227.562 229.361 C 227.273 229.623 227.266 229.778 227.162 229.709 C 226.85 229.502 226.32 229.421 225.838 229.643 C 225.262 229.908 225.068 230.33 224.883 230.687 C 224.404 230.482 224.519 230.552 224.39 230.521 C 223.777 230.372 222.976 230.711 222.638 231.655 C 222.567 231.855 222.568 231.79 222.345 231.857 C 221.878 231.999 221.234 232.466 221.455 232.899 C 222.342 234.631 223.079 234.858 222.655 235.095 C 222.265 235.312 222.293 235.78 222.536 236.151 C 222.655 236.332 222.434 236.312 222.409 236.666 C 222.367 237.25 222.558 237.186 222.397 237.384 C 218.424 242.274 219.268 247.3 221.223 249.247 C 222.917 250.935 223.961 251.517 227.013 251.517 C 227.014 251.552 230.667 251.496 232.697 250.511 C 233.171 250.281 233.561 250.069 233.892 249.866 C 233.226 247.984 233.041 244.104 233.016 235.997 Z M 227.563 229.994 C 228.061 229.227 229.063 229.325 229.424 229.968 C 229.514 230.128 229.718 230.501 229.534 230.521 C 229.412 230.534 229.473 230.49 228.427 230.641 C 227.918 230.714 227.884 230.833 227.82 230.653 C 227.597 230.027 227.5 230.092 227.564 229.994 L 227.563 229.994 Z M 225.243 230.917 C 225.908 229.48 227.197 229.903 227.353 230.818 C 227.387 231.022 227.401 230.885 226.661 231.323 C 226.433 231.458 225.799 231.866 225.79 231.872 C 225.665 231.968 225.678 231.749 225.504 231.414 C 225.314 231.05 225.194 231.023 225.243 230.917 Z M 225.262 232.06 C 225.283 232.156 225.366 232.185 225.263 232.258 C 224.723 232.637 224.247 232.935 223.485 232.925 C 223.272 232.923 222.866 232.913 222.872 232.702 C 222.936 230.411 224.93 230.547 225.262 232.06 Z M 222.998 235.322 C 223.428 235.597 224.758 235.716 225.27 235.682 C 225.989 235.634 226.955 235.595 228.541 235.04 C 229.035 234.868 229.962 234.44 230.362 234.015 C 230.443 233.929 230.476 233.993 230.558 234.077 C 231.533 235.088 226.369 236.956 223.345 236.177 C 222.557 235.975 222.672 235.113 222.998 235.322 Z M 230.065 247.422 C 229.81 247.621 230.11 248.181 230.23 248.526 C 230.426 249.087 229.545 249.394 229.331 248.851 C 228.89 247.726 229.581 248.012 228.313 248.306 C 227.682 248.453 226.421 248.283 226.164 247.705 C 225.846 246.991 227.571 247.337 228.121 247.238 C 230.099 246.879 230.529 245.267 229.311 244.952 C 228.291 244.688 226.519 245.206 225.705 243.984 C 225.473 243.635 225.313 242.928 225.53 242.255 C 225.813 241.381 226.512 241.023 226.765 240.858 C 226.918 240.758 226.881 240.833 226.545 239.83 C 226.384 239.353 227.119 239.041 227.339 239.481 C 227.488 239.781 227.45 239.798 227.697 240.41 C 227.812 240.387 227.927 240.361 228.042 240.34 C 230.353 239.919 230.342 241.887 229.542 241.588 C 229.307 241.5 228.921 241.034 228.074 241.27 C 227.074 241.548 226.141 242.177 226.32 243.191 C 226.527 244.365 228.865 243.339 230.249 244.271 C 231.435 245.071 231.143 246.582 230.065 247.422 Z M 231.093 235.345 C 230.988 235.744 230.503 236.099 230.137 236.303 C 228.523 237.204 227.376 237.355 225.533 237.559 C 225.442 237.569 225.348 237.561 225.257 237.561 L 225.256 237.567 C 223.775 237.502 223.561 237.535 222.929 237.108 C 222.713 236.962 222.769 236.418 222.924 236.509 C 224.083 237.19 226.892 236.639 227.386 236.565 C 227.881 236.492 228.553 236.33 229.639 235.776 C 230.793 235.187 230.803 234.701 230.911 234.878 C 231.143 235.258 231.119 235.245 231.093 235.345 Z" fill="#FFDE59" style="stroke-width: 1;"/>
  <path d="M 276.175 245.256 C 275.899 248.202 276.129 249.947 274.51 250.956 C 274.233 251.128 273.628 251.272 273.597 251.352 C 273.5 251.609 272.959 252.302 272.891 252.386 C 272.629 252.712 272.478 252.649 271.361 252.729 C 271.351 252.729 269.354 252.829 268.381 252.693 C 267.709 252.599 267.861 251.686 267.527 251.688 C 267.211 251.69 260.966 251.806 260.955 251.807 C 260.763 251.808 260.594 252.355 259.938 252.774 C 259.385 253.127 259.342 253.082 256.014 253.066 C 254.218 253.057 254.311 252.961 253.917 252.024 C 253.843 251.845 253.927 251.912 252.589 251.903 C 252.363 251.901 251.821 252.828 251.228 252.861 C 247.692 253.055 247.448 252.918 247.239 252.54 C 246.972 252.057 247.015 251.978 246.82 251.98 C 244.182 252.001 244.233 251.901 244.088 252.136 C 243.793 252.615 243.325 253.092 242.757 253.071 C 239.413 252.95 237.962 253.246 237.731 252.495 C 237.483 251.687 237.506 251.738 237.379 251.731 C 233.128 251.51 232.931 251.927 233.029 226.94 C 233.056 220.092 233.722 213.853 233.744 213.718 C 234.183 211.036 234.987 210.844 236.699 210.63 C 245.074 209.58 262.783 210.148 271.217 210.511 C 274.256 210.642 275.804 210.903 276.057 213.98 C 276.998 225.461 276.83 238.262 276.175 245.256 Z M 248.931 210.541 C 248.931 210.563 239.073 210.646 236.011 211.22 C 234.417 211.519 234.167 212.127 233.878 219.145 C 233.297 233.224 233.714 245.058 234.048 247.765 C 234.513 251.541 234.584 251.119 239.886 251.307 C 245.79 251.518 262.808 251.579 264.486 250.93 C 266.199 250.267 266.125 249.49 266.248 248.362 C 266.964 241.798 267.293 226.76 266.657 217.053 C 266.245 210.767 267.879 210.541 248.931 210.541 Z M 275.456 247.704 C 276.866 232.969 275.623 215.004 275.748 216.284 C 275.421 212.932 275.791 211.397 272.745 211.082 C 270.303 210.83 264.359 210.713 264.296 210.804 C 267.031 211.679 266.925 212.537 267.205 215.791 C 268.366 229.304 267.129 247.026 266.665 249.129 C 266.18 251.328 264.495 251.273 265.083 251.276 C 274.573 251.314 275.13 251.113 275.456 247.703 L 275.456 247.704 Z" fill="black" style="stroke-width: 1;"/>
  <path d="M 262.298 213.7 C 263.981 214.213 263.199 216.055 263.614 222.156 C 263.739 223.991 263.811 237.245 263.181 246.123 C 262.977 248.997 261.496 248.023 257.712 248.427 C 257.531 248.446 245.245 248.686 240.485 248.416 C 236.625 248.196 236.342 248.537 236.211 245.089 C 236.035 240.471 235.615 216.082 236.764 214.247 C 237.388 213.251 239.023 213.73 242.792 213.302 C 244.003 213.165 260.444 213.134 262.298 213.7 Z M 262.773 214.553 C 262.522 213.539 258.252 213.971 254.077 213.74 C 251.994 213.624 239.547 213.638 237.523 214.142 C 236.911 214.295 237.034 214.817 236.925 215.686 C 236.735 217.212 235.789 247.315 237.343 247.708 C 239.727 248.31 261.381 248.09 262.228 247.592 C 263.428 246.885 263.247 216.466 262.773 214.553 Z" fill="black" style="stroke-width: 1;"/>
  <path d="M 245.059 238.342 L 242.659 238.342 L 242.659 225.142 L 251.659 225.142 C 252.571 225.142 253.419 225.318 254.203 225.67 C 255.003 226.006 255.699 226.478 256.291 227.086 C 256.899 227.694 257.371 228.398 257.707 229.198 C 258.043 229.982 258.211 230.83 258.211 231.742 L 258.211 238.342 L 255.811 238.342 L 255.811 231.742 C 255.811 230.974 255.627 230.278 255.259 229.654 C 254.891 229.014 254.387 228.502 253.747 228.118 C 253.123 227.734 252.427 227.542 251.659 227.542 L 245.059 227.542 L 245.059 238.342 Z" fill="#8900FE" style="stroke-width: 1;"/>
</svg>