<?xml version="1.0" encoding="UTF-8" standalone="no" ?>
<!DOCTYPE svg PUBLIC "-//W3C//DTD SVG 1.1//EN" "http://www.w3.org/Graphics/SVG/1.1/DTD/svg11.dtd">
<svg xmlns="http://www.w3.org/2000/svg" xmlns:xlink="http://www.w3.org/1999/xlink" version="1.1" width="1080" height="1080" viewBox="0 0 1080 1080" xml:space="preserve">
<desc>Created with Fabric.js 5.2.4</desc>
<defs>
</defs>
<g transform="matrix(1 0 0 1 540 540)" id="05645d3e-4aab-4147-82b1-90eedeeffe05"  >
</g>
<g transform="matrix(1 0 0 1 540 540)" id="09cc490a-e2a3-4617-a3ec-4f381654ecd1"  >
<rect style="stroke: none; stroke-width: 1; stroke-dasharray: none; stroke-linecap: butt; stroke-dashoffset: 0; stroke-linejoin: miter; stroke-miterlimit: 4; fill: rgb(255,255,255); fill-rule: nonzero; opacity: 1; visibility: hidden;" vector-effect="non-scaling-stroke"  x="-540" y="-540" rx="0" ry="0" width="1080" height="1080" />
</g>
<g transform="matrix(1 0 0 1 542 535)"  >
<g style="" vector-effect="non-scaling-stroke"   >
		<g transform="matrix(1 0 0 1 -35.25 23.45)"  >
<path style="stroke: none; stroke-width: 1; stroke-dasharray: none; stroke-linecap: butt; stroke-dashoffset: 0; stroke-linejoin: miter; stroke-miterlimit: 4; fill: rgb(0,0,0); fill-rule: nonzero; opacity: 1;" vector-effect="non-scaling-stroke"  transform=" translate(-4.74, -62.9)" d="M 7.04283 62.3124 C 5.46843 62.5246 3.97443 62.7677 2.59603 63.0454 C 2.43363 63.0781 2.27483 63.1425 2.12203 63.2087 C 2.02003 63.2529 1.98763 63.3318 2.00323 63.4091 C 2.05323 63.6608 4.19563 63.3101 7.49043 62.8915 C 7.33243 62.7187 7.18243 62.525 7.04283 62.3124 Z" stroke-linecap="round" />
</g>
		<g transform="matrix(1 0 0 1 30.16 22.65)"  >
<path style="stroke: none; stroke-width: 1; stroke-dasharray: none; stroke-linecap: butt; stroke-dashoffset: 0; stroke-linejoin: miter; stroke-miterlimit: 4; fill: rgb(0,0,0); fill-rule: nonzero; opacity: 1;" vector-effect="non-scaling-stroke"  transform=" translate(-70.16, -62.1)" d="M 77.6668 62.2878 C 77.4664 62.2701 71.2836 61.8408 62.3884 61.4578 C 62.3688 61.6917 62.3464 61.9138 62.3188 62.1253 C 68.8672 62.3975 74.2852 62.6685 77.7024 62.7423 C 78.1316 62.7514 78.0744 62.3241 77.6668 62.2878 Z" stroke-linecap="round" />
</g>
		<g transform="matrix(1 0 0 1 -3.03 -22.45)"  >
<path style="stroke: none; stroke-width: 1; stroke-dasharray: none; stroke-linecap: butt; stroke-dashoffset: 0; stroke-linejoin: miter; stroke-miterlimit: 4; fill: rgb(0,0,0); fill-rule: nonzero; opacity: 1;" vector-effect="non-scaling-stroke"  transform=" translate(-36.97, -17)" d="M 34.6767 19.7617 C 34.9571 19.7736 38.1567 16.045 39.1255 14.7292 C 39.4851 14.2404 39.4599 14.023 38.9063 14.5233 C 37.6435 15.6642 33.9507 19.731 34.6767 19.7617 Z" stroke-linecap="round" />
</g>
		<g transform="matrix(1 0 0 1 -24.94 -19.61)"  >
<path style="stroke: none; stroke-width: 1; stroke-dasharray: none; stroke-linecap: butt; stroke-dashoffset: 0; stroke-linejoin: miter; stroke-miterlimit: 4; fill: rgb(0,0,0); fill-rule: nonzero; opacity: 1;" vector-effect="non-scaling-stroke"  transform=" translate(-15.06, -19.84)" d="M 12.3808 17.4601 C 12.2456 17.4226 12.0972 17.554 12.2252 17.6795 C 12.2336 17.6878 17.4708 22.2468 17.8316 22.235 C 18.8664 22.2015 12.4892 17.4901 12.3808 17.4601 Z" stroke-linecap="round" />
</g>
		<g transform="matrix(1 0 0 1 -15.29 -23.97)"  >
<path style="stroke: none; stroke-width: 1; stroke-dasharray: none; stroke-linecap: butt; stroke-dashoffset: 0; stroke-linejoin: miter; stroke-miterlimit: 4; fill: rgb(0,0,0); fill-rule: nonzero; opacity: 1;" vector-effect="non-scaling-stroke"  transform=" translate(-24.7, -15.49)" d="M 24.1255 12.3601 C 24.1275 13.3299 24.4851 16.8908 24.8147 18.5091 C 24.9303 19.0772 25.2751 19.0354 25.2751 18.6149 C 25.3191 18.6117 24.7971 14.1481 24.4575 12.5834 C 24.3035 11.8745 24.1247 11.9344 24.1255 12.3601 Z" stroke-linecap="round" />
</g>
		<g transform="matrix(1 0 0 1 -27.13 -8.95)"  >
<path style="stroke: none; stroke-width: 1; stroke-dasharray: none; stroke-linecap: butt; stroke-dashoffset: 0; stroke-linejoin: miter; stroke-miterlimit: 4; fill: rgb(0,0,0); fill-rule: nonzero; opacity: 1;" vector-effect="non-scaling-stroke"  transform=" translate(-12.87, -30.5)" d="M 14.9408 30.5688 C 12.71 30.153 11.2688 29.9601 10.5604 29.9226 C 9.84077 29.8844 9.85117 30.1629 10.5852 30.3732 C 11.3332 30.5874 12.832 30.7361 14.966 31.0581 C 15.8808 31.1961 16.04 30.774 14.9408 30.5688 Z" stroke-linecap="round" />
</g>
		<g transform="matrix(1 0 0 1 29.39 13.86)"  >
<path style="stroke: none; stroke-width: 1; stroke-dasharray: none; stroke-linecap: butt; stroke-dashoffset: 0; stroke-linejoin: miter; stroke-miterlimit: 4; fill: rgb(255,222,89); fill-rule: nonzero; opacity: 1;" vector-effect="non-scaling-stroke"  transform=" translate(-69.39, -53.31)" d="M 76.5611 57.0415 C 76.5431 55.1778 75.5291 52.9511 75.1023 52.2903 C 75.0079 52.1443 74.0991 50.7517 73.8799 50.5422 C 73.5607 50.2372 73.9939 49.9035 73.6855 49.4367 C 73.5167 49.1811 73.8687 49.1168 73.8391 48.6457 C 73.8015 48.048 73.3383 48.2106 73.4203 48.007 C 73.5675 47.6405 73.6967 47.6717 74.4907 46.44 C 74.7463 46.0435 74.9427 45.6967 74.6299 45.415 C 73.7279 44.6027 73.6803 45.0647 73.5951 44.8023 C 73.2235 43.6582 72.1767 43.2779 71.4039 43.7229 C 71.2987 43.7837 71.2875 43.691 71.2143 43.5422 C 70.9535 43.01 70.3927 42.561 69.7523 42.5567 C 69.1119 42.5524 69.0471 42.9126 68.9155 42.7102 C 68.1831 41.5822 66.3099 41.9042 66.0947 43.4684 C 66.0695 43.6527 66.0275 43.603 65.4847 43.7241 C 64.8127 43.8736 64.3563 43.8823 64.5111 44.3451 C 64.7727 45.1278 65.0623 45.9567 65.4567 46.6309 C 65.5459 46.7832 65.3487 46.7473 65.2051 46.9678 C 64.9123 47.4172 65.3055 47.5813 65.0803 47.6634 C 64.5147 47.8693 64.7359 48.2264 64.5807 48.2867 C 64.5739 48.2895 63.9547 48.587 63.0687 49.1239 C 62.9923 52.991 62.8155 56.4186 62.5707 59.0342 C 62.4199 60.6435 62.4203 61.8945 62.1875 62.8627 C 62.3847 62.9941 62.5831 63.1132 62.7803 63.2189 C 64.5935 64.1891 66.9051 64.5765 68.9679 64.5796 C 71.7623 64.584 73.2787 64.2396 75.2447 61.9979 C 76.0383 61.0929 76.3919 59.7404 76.5243 58.5348 C 76.6415 57.4664 76.5699 57.9951 76.5607 57.0407 L 76.5611 57.0415 Z M 72.8315 44.3139 C 73.3235 44.8386 73.2831 45.3862 73.3235 45.7527 C 73.3443 45.9405 73.1867 45.9235 72.6887 46.0115 C 71.9971 45.9614 71.6647 45.7839 71.0123 45.3854 C 70.9135 45.3255 70.8815 45.2951 70.9215 45.1444 C 71.1803 44.1656 72.1899 43.6302 72.8315 44.3139 Z M 68.8563 43.859 C 68.9359 43.5103 69.1475 43.2633 69.4687 43.1106 C 70.3063 42.7133 70.8271 43.771 70.9479 43.9478 C 71.0559 44.106 70.7419 44.1549 70.5199 44.8828 C 70.4883 44.9866 70.4035 44.9483 70.1759 44.7822 C 69.0579 43.9679 68.7891 44.1529 68.8563 43.859 Z M 66.6491 43.2826 C 67.3095 41.7527 68.8291 42.9137 68.6339 43.1678 C 68.3703 43.5107 68.4411 43.8693 68.2243 43.7998 C 66.9579 43.3939 66.4123 43.8318 66.6491 43.2826 Z M 69.1519 60.7307 C 68.9235 60.7327 69.1475 60.9745 68.8231 61.5174 C 68.6711 61.7722 68.3315 61.7663 68.1911 61.5067 C 68.1011 61.3406 68.0255 61.1674 68.0927 60.9713 C 68.2999 60.3654 67.6131 60.9587 66.4087 59.6643 C 66.0851 59.3167 66.3683 58.8236 66.7715 58.9881 C 67.0495 59.1017 67.2703 59.4761 68.0543 59.7827 C 68.8459 60.092 70.0699 59.933 70.6287 59.2982 C 70.8463 59.0512 70.8903 58.5052 70.6763 58.2038 C 69.8931 57.1003 68.3611 57.6996 67.2643 56.531 C 66.0587 55.2465 67.3459 53.6222 69.0087 53.4104 C 69.1939 53.3867 69.0743 53.2782 69.2059 52.6848 C 69.3335 52.1084 70.1899 52.2004 70.0859 52.83 C 69.9731 53.5145 69.9907 53.5256 70.1231 53.5741 C 72.1255 54.3079 71.6291 55.6686 71.1487 55.2532 C 70.9771 55.1052 70.6967 54.4046 69.6083 54.216 C 68.8871 54.0913 68.2619 54.2901 67.7951 54.8661 C 67.5011 55.2291 67.4987 55.5802 67.8131 55.942 C 68.7095 56.9745 70.7267 56.3574 71.5087 58.0689 C 71.5955 58.259 71.5783 58.3431 71.5783 58.6622 C 71.6643 59.9148 70.3395 60.7208 69.1519 60.7311 L 69.1519 60.7307 Z M 65.5667 49.0268 C 65.3347 48.845 64.9847 48.4552 65.1267 48.1987 C 65.2363 48.0003 65.1419 48.1064 65.3399 47.8938 C 65.6271 48.1861 65.5547 48.2583 66.2463 48.6722 C 67.6939 49.5385 69.2335 49.776 70.9235 49.8853 C 72.9351 50.0159 73.3023 49.3961 73.3703 49.6072 C 73.8959 51.2437 67.8807 50.8405 65.5667 49.0268 Z M 72.9275 49.2103 C 70.2855 50.0636 64.3623 48.1814 65.7127 47.0645 C 65.7543 47.0302 65.7835 47.0333 65.8215 47.0669 C 67.1183 48.2141 70.2727 49.1448 72.8451 48.5294 C 73.2851 48.424 73.2139 48.2528 73.3683 48.3921 C 73.5875 48.5889 73.3683 49.0679 72.9275 49.2103 Z" stroke-linecap="round" />
</g>
		<g transform="matrix(1 0 0 1 -26.87 14.58)"  >
<path style="stroke: none; stroke-width: 1; stroke-dasharray: none; stroke-linecap: butt; stroke-dashoffset: 0; stroke-linejoin: miter; stroke-miterlimit: 4; fill: rgb(255,222,89); fill-rule: nonzero; opacity: 1;" vector-effect="non-scaling-stroke"  transform=" translate(-13.13, -54.03)" d="M 19.4112 49.7757 C 18.2784 49.0506 17.9504 49.1051 17.9388 48.8889 C 17.9244 48.6107 17.7732 48.479 17.5064 48.3894 C 17.2608 48.3073 17.6728 48.2434 17.3976 47.6939 C 17.2972 47.4938 17.0372 47.5061 17.118 47.3822 C 17.3512 47.0244 17.694 46.199 17.8384 45.7911 C 18.2592 44.6028 18.4064 44.6884 16.6072 44.3491 C 16.5232 44.3329 16.5308 44.3089 16.4876 44.1116 C 16.1696 42.6704 14.7336 42.4345 13.9576 43.1399 C 13.6688 43.4023 13.6612 43.5573 13.5576 43.4883 C 13.2452 43.2812 12.7156 43.2003 12.2332 43.422 C 11.6572 43.6871 11.4636 44.1092 11.2784 44.4655 C 10.7992 44.2611 10.914 44.3306 10.7856 44.2998 C 10.172 44.1511 9.37124 44.4896 9.03364 45.4337 C 8.96204 45.6341 8.96324 45.5694 8.74044 45.6364 C 8.27324 45.7777 7.62924 46.2448 7.85084 46.678 C 8.73724 48.4099 9.47484 48.6368 9.05044 48.8735 C 8.66084 49.0909 8.68844 49.5592 8.93164 49.93 C 9.05004 50.1107 8.82964 50.091 8.80404 50.4452 C 8.76244 51.0291 8.95364 50.9648 8.79284 51.1625 C 4.81964 56.053 5.66364 61.0788 7.61884 63.0261 C 9.31284 64.7135 10.356 65.2962 13.408 65.2962 C 13.4096 65.3313 17.0628 65.2749 19.0928 64.2898 C 19.566 64.0602 19.956 63.8483 20.2876 63.6451 C 19.6216 61.7633 19.4364 57.8831 19.4112 49.7757 Z M 13.9588 43.7727 C 14.4564 43.0062 15.458 43.104 15.8196 43.7467 C 15.9096 43.9069 16.1136 44.2797 15.9292 44.2998 C 15.8076 44.3132 15.8688 44.2686 14.822 44.4197 C 14.3132 44.4931 14.2792 44.6115 14.2156 44.4324 C 13.992 43.8063 13.8952 43.871 13.9592 43.7731 L 13.9588 43.7727 Z M 11.6384 44.6959 C 12.3036 43.2587 13.592 43.682 13.748 44.5965 C 13.7828 44.8008 13.796 44.6636 13.0564 45.1019 C 12.828 45.2372 12.194 45.6447 12.1856 45.6514 C 12.0604 45.7473 12.0736 45.5283 11.8992 45.193 C 11.7092 44.8285 11.5892 44.8024 11.6384 44.6959 Z M 11.6572 45.8388 C 11.6784 45.9351 11.7616 45.9635 11.658 46.0365 C 11.1184 46.4164 10.642 46.7135 9.88004 46.7044 C 9.66764 46.702 9.26164 46.6918 9.26764 46.4807 C 9.33164 44.1897 11.3252 44.3258 11.6576 45.8388 L 11.6572 45.8388 Z M 9.39324 49.1011 C 9.82324 49.3761 11.1536 49.4945 11.6652 49.4605 C 12.384 49.4132 13.3508 49.3737 14.9368 48.8194 C 15.4304 48.647 16.3572 48.2186 16.7576 47.7937 C 16.8384 47.7081 16.8712 47.772 16.9532 47.8564 C 17.9288 48.8668 12.764 50.7352 9.74004 49.9564 C 8.95244 49.7537 9.06724 48.8924 9.39324 49.1011 Z M 16.4608 61.2011 C 16.2052 61.4003 16.5052 61.9601 16.6256 62.3053 C 16.8212 62.8659 15.94 63.1725 15.7268 62.6296 C 15.2852 61.5052 15.9764 61.7909 14.7088 62.0852 C 14.0776 62.2315 12.816 62.0615 12.5592 61.4843 C 12.2416 60.7695 13.966 61.1162 14.516 61.0168 C 16.4944 60.6582 16.9244 59.0458 15.7064 58.731 C 14.686 58.467 12.914 58.9846 12.1008 57.7632 C 11.868 57.4137 11.7084 56.7067 11.9256 56.0336 C 12.208 55.1598 12.9076 54.8015 13.1608 54.6366 C 13.3136 54.5372 13.2768 54.6122 12.94 53.6093 C 12.7796 53.1319 13.5148 52.8195 13.7344 53.2598 C 13.8836 53.56 13.8456 53.5766 14.092 54.1889 C 14.2076 54.1656 14.3224 54.1395 14.4376 54.1186 C 16.748 53.6977 16.7376 55.6663 15.9372 55.3665 C 15.7028 55.2785 15.316 54.8134 14.4692 55.0489 C 13.4692 55.327 12.5368 55.9555 12.7156 56.9702 C 12.9224 58.1435 15.26 57.1178 16.644 58.0504 C 17.8308 58.8501 17.5388 60.3611 16.4608 61.2011 Z M 17.488 49.1236 C 17.3836 49.5225 16.8984 49.8779 16.532 50.0823 C 14.918 50.9834 13.7716 51.1337 11.928 51.3384 C 11.8372 51.3483 11.7436 51.34 11.652 51.34 L 11.6512 51.3459 C 10.1704 51.2812 9.95604 51.3144 9.32404 50.8867 C 9.10884 50.7411 9.16444 50.1967 9.31964 50.2882 C 10.4784 50.9692 13.2872 50.418 13.7816 50.3443 C 14.276 50.2705 14.948 50.1087 16.034 49.5552 C 17.1888 48.9662 17.198 48.4797 17.306 48.6569 C 17.538 49.0372 17.514 49.0238 17.488 49.1236 Z" stroke-linecap="round" />
</g>
		<g transform="matrix(1 0 0 1 1.26 5.88)"  >
<path style="stroke: none; stroke-width: 1; stroke-dasharray: none; stroke-linecap: butt; stroke-dashoffset: 0; stroke-linejoin: miter; stroke-miterlimit: 4; fill: rgb(0,0,0); fill-rule: nonzero; opacity: 1;" vector-effect="non-scaling-stroke"  transform=" translate(-41.26, -45.33)" d="M 62.5705 59.035 C 62.2945 61.9813 62.5249 63.7263 60.9053 64.7347 C 60.6281 64.9071 60.0233 65.0507 59.9929 65.1312 C 59.8953 65.3876 59.3541 66.0808 59.2861 66.1652 C 59.0241 66.4907 58.8733 66.4284 57.7561 66.508 C 57.7461 66.508 55.7493 66.6079 54.7765 66.4722 C 54.1045 66.3783 54.2565 65.4645 53.9225 65.4665 C 53.6065 65.4685 47.3613 65.5853 47.3501 65.5857 C 47.1589 65.5872 46.9897 66.1344 46.3333 66.5534 C 45.7801 66.9061 45.7377 66.8608 42.4097 66.845 C 40.6137 66.8363 40.7065 66.7404 40.3129 65.8027 C 40.2381 65.6243 40.3221 65.6914 38.9849 65.6819 C 38.7589 65.6803 38.2169 66.6071 37.6237 66.6398 C 34.0877 66.8343 33.8437 66.697 33.6349 66.3191 C 33.3677 65.8358 33.4105 65.7569 33.2153 65.7585 C 30.5773 65.7802 30.6289 65.6796 30.4837 65.9151 C 30.1889 66.3936 29.7201 66.8706 29.1525 66.8501 C 25.8085 66.7294 24.3573 67.0245 24.1265 66.2737 C 23.8781 65.4661 23.9013 65.517 23.7749 65.5103 C 19.5237 65.2894 19.3265 65.7056 19.4249 40.7186 C 19.4517 33.8709 20.1173 27.6316 20.1393 27.4967 C 20.5789 24.8151 21.3829 24.6234 23.0941 24.4088 C 31.4693 23.3593 49.1781 23.9267 57.6129 24.2896 C 60.6517 24.4206 62.1997 24.6818 62.4521 27.7586 C 63.3937 39.2396 63.2253 52.041 62.5701 59.0354 L 62.5705 59.035 Z M 35.3261 24.3196 C 35.3261 24.3421 25.4685 24.4245 22.4065 24.9994 C 20.8125 25.2984 20.5629 25.906 20.2733 32.9237 C 19.6921 47.003 20.1097 58.8366 20.4433 61.5442 C 20.9085 65.3201 20.9793 64.8976 26.2817 65.0862 C 32.1857 65.2965 49.2037 65.3584 50.8817 64.709 C 52.5945 64.0462 52.5205 63.2694 52.6437 62.1407 C 53.3597 55.5771 53.6885 40.5391 53.0525 30.8323 C 52.6405 24.5461 54.2745 24.3196 35.3261 24.3196 Z M 61.8513 61.4827 C 63.2613 46.7481 62.0185 28.7832 62.1437 30.0634 C 61.8165 26.7108 62.1869 25.1761 59.1405 24.8613 C 56.6981 24.6088 50.7541 24.4924 50.6913 24.5831 C 53.4261 25.4578 53.3205 26.3159 53.6001 29.5695 C 54.7613 43.083 53.5249 60.8053 53.0609 62.9084 C 52.5757 65.1071 50.8901 65.0519 51.4789 65.0546 C 60.9681 65.0929 61.5253 64.8921 61.8517 61.4823 L 61.8513 61.4827 Z" stroke-linecap="round" />
</g>
		<g transform="matrix(1 0 0 1 -3.76 5.21)"  >
<path style="stroke: none; stroke-width: 1; stroke-dasharray: none; stroke-linecap: butt; stroke-dashoffset: 0; stroke-linejoin: miter; stroke-miterlimit: 4; fill: rgb(0,0,0); fill-rule: nonzero; opacity: 1;" vector-effect="non-scaling-stroke"  transform=" translate(-36.24, -44.66)" d="M 48.6932 27.4785 C 50.3764 27.9922 49.5948 29.8342 50.0092 35.935 C 50.134 37.7703 50.206 51.0239 49.576 59.9022 C 49.372 62.7755 47.8912 61.8022 44.1072 62.2058 C 43.9264 62.2251 31.6404 62.4654 26.8808 62.1947 C 23.0204 61.9754 22.7376 62.3162 22.6064 58.8681 C 22.4308 54.2495 22.01 29.8606 23.1596 28.0257 C 23.7832 27.0303 25.4188 27.5085 29.1876 27.0812 C 30.3984 26.9439 46.8396 26.9127 48.6932 27.4785 Z M 49.1688 28.3322 C 48.9176 27.3175 44.6472 27.7499 40.4724 27.5187 C 38.3892 27.4031 25.942 27.4173 23.9188 27.9211 C 23.3064 28.0738 23.4296 28.5958 23.3208 29.4653 C 23.13 30.9905 22.1848 61.0944 23.738 61.4869 C 26.122 62.0894 47.7764 61.8688 48.6232 61.3706 C 49.8236 60.664 49.642 30.2445 49.1688 28.3322 Z" stroke-linecap="round" />
</g>
</g>
</g>
<g transform="matrix(1 0 0 1 540 540)"  >
<path style="stroke: rgb(0,0,0); stroke-width: 0; stroke-dasharray: none; stroke-linecap: butt; stroke-dashoffset: 0; stroke-linejoin: miter; stroke-miterlimit: 4; fill: rgb(137,0,254); fill-rule: nonzero; opacity: 1;" vector-effect="non-scaling-stroke"  transform=" translate(-8.5, -7.4)" d="M 3.128 14 L 0.728 14 L 0.728 0.8 L 9.728 0.8 C 10.64 0.8 11.488 0.976 12.272 1.328 C 13.072 1.664 13.768 2.136 14.36 2.744 C 14.968 3.352 15.44 4.056 15.776 4.856 C 16.112 5.64 16.28 6.488 16.28 7.4 L 16.28 14 L 13.88 14 L 13.88 7.4 C 13.88 6.632 13.696 5.936 13.328 5.312 C 12.96 4.672 12.456 4.16 11.816 3.776 C 11.192 3.392 10.496 3.2 9.728 3.2 L 3.128 3.2 L 3.128 14 Z" stroke-linecap="round" />
</g>
</svg>